<svg xmlns="http://www.w3.org/2000/svg" viewBox="0 0 100 100" width="100" height="100">
  <circle cx="50" cy="28" r="10" fill="#FFB5A7"/>
  <path d="M38 42 L62 42 L60 62 L40 62 Z" fill="#8B6F47"/>
  <rect x="38" y="62" width="10" height="20" fill="#333" rx="2"/>
  <rect x="52" y="62" width="10" height="20" fill="#333" rx="2"/>
  <rect x="38" y="80" width="10" height="4" fill="#666" rx="1"/>
  <rect x="52" y="80" width="10" height="4" fill="#666" rx="1"/>
  <path d="M38 42 L32 48 L35 56" fill="#FFB5A7"/>
  <path d="M62 42 L68 48 L65 56" fill="#FFB5A7"/>
  <rect x="68" y="50" width="8" height="12" fill="#6BBF59" rx="1"/>
  <rect x="70" y="48" width="4" height="2" fill="#6BBF59"/>
  <circle cx="46" cy="26" r="1.5" fill="#333"/>
  <circle cx="54" cy="26" r="1.5" fill="#333"/>
  <path d="M47 32 Q50 34 53 32" fill="none" stroke="#333" stroke-width="1.5" stroke-linecap="round"/>
  <rect x="43" y="20" width="14" height="6" fill="#333" rx="3"/>
</svg>