<svg xmlns="http://www.w3.org/2000/svg" viewBox="0 0 100 100" width="100" height="100">
  <!-- Left wing top -->
  <ellipse cx="35" cy="45" rx="12" ry="18" fill="#FFD93D"/>
  <ellipse cx="35" cy="45" rx="8" ry="14" fill="#FFB5A7"/>
  <circle cx="35" cy="38" r="3" fill="#FF6B9D"/>
  <circle cx="32" cy="45" r="2" fill="#6BCDFF"/>
  <circle cx="38" cy="48" r="2" fill="#FF6B9D"/>
  <!-- Right wing top -->
  <ellipse cx="65" cy="45" rx="12" ry="18" fill="#FFD93D"/>
  <ellipse cx="65" cy="45" rx="8" ry="14" fill="#FFB5A7"/>
  <circle cx="65" cy="38" r="3" fill="#FF6B9D"/>
  <circle cx="62" cy="48" r="2" fill="#6BCDFF"/>
  <circle cx="68" cy="45" r="2" fill="#FF6B9D"/>
  <!-- Left wing bottom -->
  <ellipse cx="30" cy="60" rx="10" ry="15" fill="#6BCDFF"/>
  <ellipse cx="30" cy="60" rx="6" ry="11" fill="#5AB6E8"/>
  <circle cx="30" cy="55" r="2" fill="#FFD93D"/>
  <circle cx="28" cy="62" r="2" fill="#FF6B9D"/>
  <!-- Right wing bottom -->
  <ellipse cx="70" cy="60" rx="10" ry="15" fill="#6BCDFF"/>
  <ellipse cx="70" cy="60" rx="6" ry="11" fill="#5AB6E8"/>
  <circle cx="70" cy="55" r="2" fill="#FFD93D"/>
  <circle cx="72" cy="62" r="2" fill="#FF6B9D"/>
  <!-- Body -->
  <ellipse cx="50" cy="52" rx="8" ry="10" fill="#FF9688"/>
  <!-- Head -->
  <circle cx="50" cy="42" r="5" fill="#FF9688"/>
  <!-- Antennae -->
  <line x1="48" y1="37" x2="45" y2="32" stroke="#333" stroke-width="1"/>
  <line x1="52" y1="37" x2="55" y2="32" stroke="#333" stroke-width="1"/>
  <circle cx="45" cy="32" r="1.5" fill="#FFD93D"/>
  <circle cx="55" cy="32" r="1.5" fill="#FFD93D"/>
</svg>