<svg xmlns="http://www.w3.org/2000/svg" viewBox="0 0 100 100" width="100" height="100">
  <!-- Head -->
  <circle cx="50" cy="28" r="9" fill="#FFB5A7"/>
  <!-- Hair -->
  <path d="M43 22 Q45 18 47 22" fill="#8B6F47"/>
  <path d="M48 20 Q50 16 52 20" fill="#8B6F47"/>
  <path d="M53 22 Q55 18 57 22" fill="#8B6F47"/>
  <!-- Body (torso) -->
  <rect x="43" y="37" width="14" height="20" fill="#FF6B9D" rx="3"/>
  <!-- Arms -->
  <rect x="36" y="40" width="5" height="14" fill="#FFB5A7" rx="2"/>
  <rect x="59" y="40" width="5" height="14" fill="#FFB5A7" rx="2"/>
  <!-- Hands -->
  <circle cx="38.5" cy="54" r="2.5" fill="#FFB5A7"/>
  <circle cx="61.5" cy="54" r="2.5" fill="#FFB5A7"/>
  <!-- Legs -->
  <rect x="44" y="57" width="5" height="20" fill="#333" rx="2"/>
  <rect x="51" y="57" width="5" height="20" fill="#333" rx="2"/>
  <!-- Shoes -->
  <ellipse cx="46.5" cy="78" rx="4" ry="2.5" fill="#333"/>
  <ellipse cx="53.5" cy="78" rx="4" ry="2.5" fill="#333"/>
  <!-- Face details -->
  <circle cx="46" cy="27" r="1.5" fill="#333"/>
  <circle cx="54" cy="27" r="1.5" fill="#333"/>
  <path d="M47 32 Q50 34 53 32" fill="none" stroke="#333" stroke-width="1.5" stroke-linecap="round"/>
  <!-- Collar -->
  <path d="M43 37 L45 33 L50 35 L55 33 L57 37" fill="white"/>
  <!-- Belt -->
  <rect x="43" y="52" width="14" height="3" fill="#8B6F47" rx="1"/>
  <circle cx="50" cy="53.5" r="1.5" fill="#FFD93D"/>
</svg>