<svg xmlns="http://www.w3.org/2000/svg" viewBox="0 0 100 100" width="100" height="100">
  <path d="M25 30 L30 25 L35 30 L32 35 L28 35 Z" fill="#E74C3C"/>
  <rect x="28" y="35" width="4" height="8" fill="#6BBF59"/>
  <path d="M45 35 L50 30 L55 35 L52 40 L48 40 Z" fill="#6BCDFF"/>
  <rect x="48" y="40" width="4" height="8" fill="#6BBF59"/>
  <path d="M65 25 L70 20 L75 25 L72 30 L68 30 Z" fill="#FFD93D"/>
  <rect x="68" y="30" width="4" height="8" fill="#6BBF59"/>
  <circle cx="35" cy="55" r="3" fill="#FF6B9D"/>
  <circle cx="55" cy="60" r="3" fill="#FFD93D"/>
  <rect x="20" y="68" width="8" height="4" fill="#FFD93D" transform="rotate(20 24 70)"/>
  <rect x="65" y="70" width="8" height="4" fill="#6BCDFF" transform="rotate(-25 69 72)"/>
</svg>
