<svg xmlns="http://www.w3.org/2000/svg" viewBox="0 0 100 100" width="100" height="100">
  <rect x="20" y="15" width="6" height="12" fill="#FF6B9D" transform="rotate(25 23 21)"/>
  <rect x="45" y="20" width="6" height="12" fill="#FFD93D" transform="rotate(-15 48 26)"/>
  <rect x="70" y="25" width="6" height="12" fill="#6BCDFF" transform="rotate(35 73 31)"/>
  <circle cx="30" cy="45" r="4" fill="#6BBF59"/>
  <circle cx="55" cy="50" r="4" fill="#FF6B9D"/>
  <circle cx="75" cy="55" r="4" fill="#FFD93D"/>
  <path d="M25 65 L28 68 L25 71 L22 68 Z" fill="#6BCDFF"/>
  <path d="M50 70 L53 73 L50 76 L47 73 Z" fill="#FF6B9D"/>
  <path d="M68 70 L71 73 L68 76 L65 73 Z" fill="#6BBF59"/>
  <rect x="35" y="75" width="5" height="10" fill="#FFD93D" transform="rotate(-20 37.5 80)"/>
  <rect x="60" y="78" width="5" height="10" fill="#6BCDFF" transform="rotate(30 62.5 83)"/>
</svg>