<svg xmlns="http://www.w3.org/2000/svg" viewBox="0 0 100 100" width="100" height="100">
  <!-- Body -->
  <ellipse cx="55" cy="58" rx="20" ry="14" fill="#A0826D"/>
  <!-- Head -->
  <circle cx="38" cy="45" r="14" fill="#8B6F47"/>
  <!-- Ears -->
  <ellipse cx="32" cy="35" rx="5" ry="8" fill="#8B6F47" transform="rotate(-20 32 35)"/>
  <ellipse cx="44" cy="35" rx="5" ry="8" fill="#8B6F47" transform="rotate(20 44 35)"/>
  <!-- Snout -->
  <ellipse cx="30" cy="48" rx="6" ry="5" fill="#A0826D"/>
  <circle cx="28" cy="48" r="2" fill="#333"/>
  <!-- Eyes -->
  <circle cx="36" cy="42" r="2" fill="#333"/>
  <circle cx="44" cy="42" r="2" fill="#333"/>
  <!-- Legs -->
  <rect x="40" y="68" width="5" height="14" fill="#8B6F47" rx="2"/>
  <rect x="50" y="68" width="5" height="14" fill="#8B6F47" rx="2"/>
  <rect x="60" y="68" width="5" height="14" fill="#8B6F47" rx="2"/>
  <rect x="70" y="68" width="5" height="14" fill="#8B6F47" rx="2"/>
  <!-- Tail -->
  <path d="M75 55 Q82 50 85 45" fill="none" stroke="#8B6F47" stroke-width="5" stroke-linecap="round"/>
  <!-- Paws -->
  <ellipse cx="42.5" cy="82" rx="3" ry="2" fill="#A0826D"/>
  <ellipse cx="52.5" cy="82" rx="3" ry="2" fill="#A0826D"/>
  <ellipse cx="62.5" cy="82" rx="3" ry="2" fill="#A0826D"/>
  <ellipse cx="72.5" cy="82" rx="3" ry="2" fill="#A0826D"/>
  <!-- Collar -->
  <rect x="35" y="52" width="15" height="4" fill="#FF6B9D" rx="2"/>
  <circle cx="42.5" cy="54" r="2" fill="#FFD93D"/>
</svg>