<svg xmlns="http://www.w3.org/2000/svg" viewBox="0 0 100 100" width="100" height="100">
  <!-- Head -->
  <circle cx="50" cy="32" r="10" fill="#FFB5A7"/>
  <!-- Hair -->
  <path d="M43 25 Q45 20 47 25" fill="#8B6F47"/>
  <path d="M48 23 Q50 18 52 23" fill="#8B6F47"/>
  <path d="M53 25 Q55 20 57 25" fill="#8B6F47"/>
  <!-- Body (torso) -->
  <rect x="42" y="42" width="16" height="18" fill="#6BCDFF" rx="3"/>
  <!-- Arms -->
  <rect x="35" y="45" width="5" height="12" fill="#FFB5A7" rx="2"/>
  <rect x="60" y="45" width="5" height="12" fill="#FFB5A7" rx="2"/>
  <!-- Hands -->
  <circle cx="37.5" cy="57" r="2.5" fill="#FFB5A7"/>
  <circle cx="62.5" cy="57" r="2.5" fill="#FFB5A7"/>
  <!-- Upper legs (sitting) -->
  <rect x="42" y="60" width="6" height="10" fill="#8B6F47" rx="2"/>
  <rect x="52" y="60" width="6" height="10" fill="#8B6F47" rx="2"/>
  <!-- Lower legs (horizontal) -->
  <rect x="28" y="67" width="14" height="5" fill="#8B6F47" rx="2"/>
  <rect x="58" y="67" width="14" height="5" fill="#8B6F47" rx="2"/>
  <!-- Shoes -->
  <ellipse cx="34" cy="72" rx="6" ry="3" fill="#333"/>
  <ellipse cx="66" cy="72" rx="6" ry="3" fill="#333"/>
  <!-- Face details -->
  <circle cx="46" cy="31" r="1.5" fill="#333"/>
  <circle cx="54" cy="31" r="1.5" fill="#333"/>
  <path d="M47 36 Q50 38 53 36" fill="none" stroke="#333" stroke-width="1.5" stroke-linecap="round"/>
  <!-- Collar -->
  <path d="M42 42 L44 38 L50 40 L56 38 L58 42" fill="white"/>
</svg>